<svg xmlns="http://www.w3.org/2000/svg" xmlns:xlink="http://www.w3.org/1999/xlink" width="500" zoomAndPan="magnify" viewBox="0 0 375 374.999991" height="500" preserveAspectRatio="xMidYMid meet" version="1.0"><path fill="#ff8800" d="M 77.585938 29.09375 C 77.585938 13.027344 90.613281 0 106.679688 0 C 122.75 0 135.777344 13.027344 135.777344 29.09375 L 135.777344 38.792969 L 239.222656 38.792969 L 239.222656 29.09375 C 239.222656 13.027344 252.25 0 268.320312 0 C 284.386719 0 297.414062 13.027344 297.414062 29.09375 L 297.414062 38.792969 L 342.671875 38.792969 C 360.527344 38.792969 375 53.265625 375 71.121094 L 375 342.671875 C 375 360.527344 360.527344 375 342.671875 375 L 32.328125 375 C 14.472656 375 0 360.527344 0 342.671875 L 0 71.121094 C 0 53.265625 14.472656 38.792969 32.328125 38.792969 L 77.585938 38.792969 Z M 297.414062 51.722656 L 297.414062 67.886719 C 297.414062 83.957031 284.386719 96.984375 268.320312 96.984375 C 252.25 96.984375 239.222656 83.957031 239.222656 67.886719 L 239.222656 51.722656 L 135.777344 51.722656 L 135.777344 67.886719 C 135.777344 83.957031 122.75 96.984375 106.679688 96.984375 C 90.613281 96.984375 77.585938 83.957031 77.585938 67.886719 L 77.585938 51.722656 L 32.328125 51.722656 C 21.613281 51.722656 12.929688 60.410156 12.929688 71.121094 L 12.929688 103.449219 L 362.070312 103.449219 L 362.070312 71.121094 C 362.070312 60.410156 353.386719 51.722656 342.671875 51.722656 Z M 106.679688 12.929688 C 97.753906 12.929688 90.515625 20.167969 90.515625 29.09375 L 90.515625 67.886719 C 90.515625 76.816406 97.753906 84.050781 106.679688 84.050781 C 115.609375 84.050781 122.84375 76.816406 122.84375 67.886719 L 122.84375 29.09375 C 122.84375 20.167969 115.609375 12.929688 106.679688 12.929688 Z M 12.929688 116.378906 L 12.929688 342.671875 C 12.929688 353.386719 21.613281 362.070312 32.328125 362.070312 L 342.671875 362.070312 C 353.386719 362.070312 362.070312 353.386719 362.070312 342.671875 L 362.070312 116.378906 Z M 252.15625 29.09375 C 252.15625 20.167969 259.390625 12.929688 268.320312 12.929688 C 277.246094 12.929688 284.484375 20.167969 284.484375 29.09375 L 284.484375 67.886719 C 284.484375 76.816406 277.246094 84.050781 268.320312 84.050781 C 259.390625 84.050781 252.15625 76.816406 252.15625 67.886719 Z M 51.722656 168.101562 C 51.722656 160.960938 57.511719 155.171875 64.65625 155.171875 L 103.449219 155.171875 C 110.589844 155.171875 116.378906 160.960938 116.378906 168.101562 L 116.378906 206.898438 C 116.378906 214.039062 110.589844 219.828125 103.449219 219.828125 L 64.65625 219.828125 C 57.511719 219.828125 51.722656 214.039062 51.722656 206.898438 Z M 103.449219 168.101562 L 64.65625 168.101562 L 64.65625 206.898438 L 103.449219 206.898438 Z M 64.65625 258.621094 C 57.511719 258.621094 51.722656 264.410156 51.722656 271.550781 L 51.722656 310.34375 C 51.722656 317.488281 57.511719 323.277344 64.65625 323.277344 L 103.449219 323.277344 C 110.589844 323.277344 116.378906 317.488281 116.378906 310.34375 L 116.378906 271.550781 C 116.378906 264.410156 110.589844 258.621094 103.449219 258.621094 Z M 64.65625 271.550781 L 103.449219 271.550781 L 103.449219 310.34375 L 64.65625 310.34375 Z M 155.171875 168.101562 C 155.171875 160.960938 160.960938 155.171875 168.101562 155.171875 L 206.898438 155.171875 C 214.039062 155.171875 219.828125 160.960938 219.828125 168.101562 L 219.828125 206.898438 C 219.828125 214.039062 214.039062 219.828125 206.898438 219.828125 L 168.101562 219.828125 C 160.960938 219.828125 155.171875 214.039062 155.171875 206.898438 Z M 206.898438 168.101562 L 168.101562 168.101562 L 168.101562 206.898438 L 206.898438 206.898438 Z M 168.101562 258.621094 C 160.960938 258.621094 155.171875 264.410156 155.171875 271.550781 L 155.171875 310.34375 C 155.171875 317.488281 160.960938 323.277344 168.101562 323.277344 L 206.898438 323.277344 C 214.039062 323.277344 219.828125 317.488281 219.828125 310.34375 L 219.828125 271.550781 C 219.828125 264.410156 214.039062 258.621094 206.898438 258.621094 Z M 168.101562 271.550781 L 206.898438 271.550781 L 206.898438 310.34375 L 168.101562 310.34375 Z M 258.621094 271.550781 C 258.621094 264.410156 264.410156 258.621094 271.550781 258.621094 L 310.34375 258.621094 C 317.488281 258.621094 323.277344 264.410156 323.277344 271.550781 L 323.277344 310.34375 C 323.277344 317.488281 317.488281 323.277344 310.34375 323.277344 L 271.550781 323.277344 C 264.410156 323.277344 258.621094 317.488281 258.621094 310.34375 Z M 310.34375 271.550781 L 271.550781 271.550781 L 271.550781 310.34375 L 310.34375 310.34375 Z M 328.601562 158.835938 C 330.625 155.890625 329.882812 151.867188 326.9375 149.84375 C 323.996094 147.820312 319.972656 148.566406 317.949219 151.507812 L 286.789062 196.828125 L 269.65625 179.695312 C 267.132812 177.171875 263.039062 177.171875 260.515625 179.695312 C 257.988281 182.21875 257.988281 186.3125 260.515625 188.839844 L 283.144531 211.46875 C 284.503906 212.828125 286.394531 213.511719 288.304688 213.335938 C 290.21875 213.160156 291.957031 212.140625 293.042969 210.558594 Z M 328.601562 158.835938 " fill-opacity="1" fill-rule="evenodd"/></svg>