<svg xmlns="http://www.w3.org/2000/svg" xmlns:xlink="http://www.w3.org/1999/xlink" width="500" zoomAndPan="magnify" viewBox="0 0 375 374.999991" height="500" preserveAspectRatio="xMidYMid meet" version="1.0"><path fill="#ff8800" d="M 364.117188 324.625 L 250.980469 211.488281 C 263.027344 183.6875 257.75 150.1875 235.027344 127.460938 C 216.910156 109.347656 191.933594 102.34375 168.460938 106.328125 L 212.84375 150.710938 L 198.015625 198.015625 L 150.714844 212.835938 L 106.332031 168.453125 C 102.347656 191.925781 109.351562 216.902344 127.46875 235.019531 C 150.191406 257.742188 183.695312 263.019531 211.496094 250.976562 L 324.628906 364.109375 C 335.53125 375.015625 353.214844 375.015625 364.113281 364.109375 L 364.117188 364.109375 C 375.019531 353.207031 375.019531 335.527344 364.117188 324.625 " fill-opacity="1" fill-rule="nonzero"/><path fill="#ff8800" d="M 181.371094 281.832031 C 125.890625 281.832031 80.914062 236.855469 80.914062 181.375 C 80.914062 125.894531 125.890625 80.921875 181.371094 80.921875 C 236.847656 80.921875 281.824219 125.894531 281.824219 181.375 C 281.824219 189.292969 280.8125 196.960938 279.082031 204.347656 L 311.414062 236.648438 C 315.339844 227.386719 318.351562 217.636719 320.246094 207.484375 L 362.75 199.421875 L 362.75 163.332031 L 320.246094 155.265625 C 316.582031 135.652344 308.929688 117.453125 298.0625 101.59375 L 322.382812 65.878906 L 296.867188 40.359375 L 261.152344 64.683594 C 245.289062 53.816406 227.09375 46.160156 207.480469 42.5 L 199.414062 -0.00390625 L 163.324219 -0.00390625 L 155.261719 42.5 C 135.644531 46.160156 117.449219 53.816406 101.589844 64.683594 L 65.875 40.359375 L 40.355469 65.878906 L 64.675781 101.59375 C 53.808594 117.453125 46.15625 135.652344 42.492188 155.265625 L -0.0117188 163.332031 L -0.0117188 199.421875 L 42.492188 207.484375 C 46.15625 227.097656 53.808594 245.296875 64.675781 261.160156 L 40.355469 296.871094 L 65.875 322.390625 L 101.589844 298.070312 C 117.449219 308.9375 135.644531 316.585938 155.257812 320.253906 L 163.324219 362.753906 L 199.414062 362.753906 L 207.480469 320.253906 C 217.640625 318.355469 227.394531 315.339844 236.671875 311.410156 L 204.320312 279.09375 C 196.9375 280.824219 189.277344 281.832031 181.371094 281.832031 " fill-opacity="1" fill-rule="nonzero"/></svg>