<svg xmlns="http://www.w3.org/2000/svg" xmlns:xlink="http://www.w3.org/1999/xlink" width="500" zoomAndPan="magnify" viewBox="0 0 375 374.999991" height="500" preserveAspectRatio="xMidYMid meet" version="1.0"><defs><clipPath id="6087a0bcf2"><path d="M 1 7.5 L 374 7.5 L 374 366 L 1 366 Z M 1 7.5 " clip-rule="nonzero"/></clipPath></defs><g clip-path="url(#6087a0bcf2)"><path fill="#ff8800" d="M 286.398438 360.117188 L 199.402344 316.339844 C 198.050781 315.660156 196.636719 315.152344 195.164062 314.816406 C 193.6875 314.476562 192.191406 314.324219 190.679688 314.351562 C 189.167969 314.378906 187.679688 314.585938 186.21875 314.976562 C 184.757812 315.363281 183.363281 315.921875 182.035156 316.648438 L 96.65625 363.492188 C 95.894531 363.910156 95.109375 364.273438 94.300781 364.578125 C 93.492188 364.886719 92.664062 365.136719 91.816406 365.328125 C 90.972656 365.523438 90.117188 365.65625 89.253906 365.726562 C 88.390625 365.800781 87.527344 365.816406 86.664062 365.765625 C 85.796875 365.71875 84.941406 365.613281 84.089844 365.449219 C 83.238281 365.28125 82.402344 365.054688 81.585938 364.773438 C 80.765625 364.492188 79.96875 364.152344 79.199219 363.757812 C 78.425781 363.367188 77.683594 362.921875 76.976562 362.425781 C 76.265625 361.925781 75.59375 361.382812 74.957031 360.792969 C 74.324219 360.203125 73.734375 359.570312 73.1875 358.898438 C 72.640625 358.226562 72.144531 357.519531 71.695312 356.777344 C 71.25 356.035156 70.855469 355.265625 70.511719 354.46875 C 70.171875 353.671875 69.886719 352.855469 69.660156 352.019531 C 69.433594 351.183594 69.265625 350.335938 69.15625 349.476562 C 69.046875 348.617188 69 347.753906 69.011719 346.886719 C 69.023438 346.019531 69.09375 345.160156 69.222656 344.304688 L 83.992188 248.023438 C 84.222656 246.527344 84.269531 245.027344 84.132812 243.519531 C 83.996094 242.011719 83.679688 240.542969 83.1875 239.113281 C 82.695312 237.683594 82.039062 236.332031 81.214844 235.0625 C 80.394531 233.792969 79.433594 232.636719 78.328125 231.601562 L 7.375 164.890625 C 6.746094 164.296875 6.160156 163.664062 5.617188 162.988281 C 5.074219 162.3125 4.582031 161.601562 4.136719 160.855469 C 3.691406 160.113281 3.304688 159.339844 2.964844 158.542969 C 2.628906 157.746094 2.351562 156.925781 2.128906 156.089844 C 1.90625 155.25 1.742188 154.402344 1.636719 153.542969 C 1.535156 152.683594 1.488281 151.820312 1.503906 150.953125 C 1.523438 150.085938 1.597656 149.226562 1.734375 148.371094 C 1.867188 147.515625 2.0625 146.671875 2.316406 145.84375 C 2.570312 145.015625 2.878906 144.207031 3.246094 143.421875 C 3.609375 142.636719 4.027344 141.878906 4.5 141.152344 C 4.96875 140.425781 5.488281 139.734375 6.054688 139.078125 C 6.621094 138.421875 7.230469 137.808594 7.882812 137.238281 C 8.535156 136.667969 9.226562 136.148438 9.949219 135.671875 C 10.675781 135.199219 11.429688 134.777344 12.214844 134.40625 C 12.996094 134.039062 13.804688 133.722656 14.628906 133.464844 C 15.457031 133.210938 16.300781 133.011719 17.152344 132.871094 L 113.265625 117.152344 C 114.757812 116.910156 116.199219 116.492188 117.589844 115.898438 C 118.980469 115.308594 120.277344 114.554688 121.488281 113.648438 C 122.695312 112.738281 123.777344 111.699219 124.730469 110.527344 C 125.6875 109.355469 126.488281 108.085938 127.132812 106.71875 L 168.675781 18.613281 C 169.046875 17.828125 169.46875 17.074219 169.941406 16.347656 C 170.417969 15.625 170.9375 14.933594 171.507812 14.28125 C 172.082031 13.628906 172.691406 13.019531 173.347656 12.453125 C 174.003906 11.886719 174.695312 11.367188 175.421875 10.898438 C 176.152344 10.425781 176.90625 10.007812 177.695312 9.644531 C 178.480469 9.277344 179.285156 8.96875 180.117188 8.714844 C 180.945312 8.464844 181.785156 8.269531 182.644531 8.132812 C 183.5 8 184.359375 7.921875 185.226562 7.90625 C 186.09375 7.890625 186.957031 7.9375 187.816406 8.042969 C 188.675781 8.144531 189.527344 8.308594 190.363281 8.535156 C 191.199219 8.757812 192.019531 9.035156 192.816406 9.375 C 193.617188 9.710938 194.386719 10.101562 195.128906 10.546875 C 195.875 10.988281 196.585938 11.484375 197.257812 12.027344 C 197.933594 12.570312 198.570312 13.15625 199.164062 13.789062 C 199.757812 14.417969 200.304688 15.089844 200.804688 15.796875 C 201.304688 16.503906 201.75 17.242188 202.148438 18.015625 L 246.792969 104.566406 C 247.488281 105.910156 248.332031 107.152344 249.328125 108.292969 C 250.324219 109.429688 251.441406 110.433594 252.683594 111.300781 C 253.921875 112.167969 255.246094 112.875 256.660156 113.421875 C 258.070312 113.964844 259.527344 114.335938 261.027344 114.527344 L 357.636719 126.808594 C 358.496094 126.917969 359.347656 127.085938 360.183594 127.3125 C 361.019531 127.539062 361.835938 127.824219 362.632812 128.167969 C 363.425781 128.507812 364.195312 128.902344 364.9375 129.351562 C 365.679688 129.796875 366.386719 130.296875 367.058594 130.84375 C 367.730469 131.390625 368.363281 131.980469 368.953125 132.613281 C 369.542969 133.25 370.085938 133.921875 370.582031 134.632812 C 371.078125 135.34375 371.523438 136.082031 371.917969 136.855469 C 372.308594 137.628906 372.648438 138.421875 372.929688 139.242188 C 373.210938 140.0625 373.4375 140.898438 373.601562 141.746094 C 373.769531 142.597656 373.875 143.457031 373.921875 144.320312 C 373.96875 145.1875 373.957031 146.050781 373.882812 146.914062 C 373.808594 147.777344 373.675781 148.632812 373.480469 149.476562 C 373.289062 150.320312 373.039062 151.148438 372.730469 151.957031 C 372.421875 152.769531 372.058594 153.554688 371.644531 154.3125 C 371.226562 155.070312 370.757812 155.800781 370.238281 156.492188 C 369.722656 157.1875 369.15625 157.84375 368.546875 158.457031 L 300.035156 227.667969 C 298.96875 228.742188 298.050781 229.929688 297.273438 231.230469 C 296.496094 232.527344 295.886719 233.902344 295.445312 235.347656 C 295.003906 236.796875 294.742188 238.277344 294.660156 239.785156 C 294.578125 241.296875 294.679688 242.796875 294.960938 244.285156 L 313.128906 339.960938 C 313.289062 340.8125 313.390625 341.671875 313.433594 342.535156 C 313.472656 343.402344 313.457031 344.265625 313.378906 345.128906 C 313.296875 345.992188 313.160156 346.84375 312.964844 347.6875 C 312.765625 348.53125 312.511719 349.355469 312.199219 350.164062 C 311.886719 350.972656 311.519531 351.757812 311.097656 352.511719 C 310.679688 353.269531 310.207031 353.996094 309.683594 354.6875 C 309.160156 355.378906 308.59375 356.03125 307.980469 356.640625 C 307.367188 357.253906 306.71875 357.820312 306.023438 358.34375 C 305.332031 358.863281 304.609375 359.335938 303.851562 359.757812 C 303.09375 360.175781 302.3125 360.542969 301.503906 360.855469 C 300.695312 361.167969 299.867188 361.421875 299.023438 361.617188 C 298.179688 361.816406 297.328125 361.953125 296.464844 362.03125 C 295.601562 362.109375 294.738281 362.128906 293.871094 362.085938 C 293.007812 362.042969 292.148438 361.941406 291.296875 361.777344 C 290.445312 361.617188 289.609375 361.398438 288.789062 361.121094 C 287.96875 360.839844 287.171875 360.507812 286.398438 360.117188 Z M 286.398438 360.117188 " fill-opacity="1" fill-rule="nonzero"/></g></svg>