<svg xmlns="http://www.w3.org/2000/svg" xmlns:xlink="http://www.w3.org/1999/xlink" width="500" zoomAndPan="magnify" viewBox="0 0 375 374.999991" height="500" preserveAspectRatio="xMidYMid meet" version="1.0"><path fill="#ff8800" d="M 209.667969 146.464844 L 269.226562 86.914062 L 280.28125 51.585938 L 340.597656 8.007812 L 367.375 34.796875 L 323.816406 95.113281 L 288.363281 106.164062 L 228.882812 165.679688 Z M 175.503906 236.027344 L 71.761719 339.769531 C 67.625 343.90625 60.914062 343.90625 56.777344 339.769531 C 52.644531 335.632812 52.644531 328.921875 56.777344 324.785156 L 160.519531 221.046875 L 127.976562 188.503906 L 21.707031 294.765625 C 5.4375 311.035156 5.4375 337.417969 21.707031 353.6875 C 37.980469 369.960938 64.359375 369.960938 80.632812 353.6875 L 186.894531 247.425781 Z M 75.777344 0.273438 L 108.898438 47.46875 C 113.4375 54.007812 111.839844 62.90625 105.371094 67.460938 L 69.570312 92.628906 C 67.042969 94.382812 64.160156 95.234375 61.3125 95.234375 C 56.800781 95.234375 52.371094 93.109375 49.585938 89.097656 L 16.402344 41.84375 C 5.964844 64.515625 7.511719 91.855469 22.808594 113.699219 C 36.878906 133.714844 59.222656 144.417969 81.988281 144.417969 C 88.660156 144.417969 95.363281 143.496094 101.910156 141.625 L 229.636719 269.351562 C 217.660156 292.277344 218.425781 320.851562 234.058594 343.648438 C 248.074219 364.082031 270.6875 374.980469 293.710938 374.980469 C 295.515625 374.980469 297.324219 374.917969 299.128906 374.777344 L 266.460938 327.1875 C 261.984375 320.652344 263.648438 311.824219 270.179688 307.269531 L 306.246094 282.488281 C 308.730469 280.785156 311.558594 279.96875 314.363281 279.96875 C 318.921875 279.96875 323.414062 282.132812 326.226562 286.144531 L 358.824219 333.734375 C 369.519531 311.25 368.246094 283.832031 353.125 261.867188 C 339.121094 241.5 316.585938 230.550781 293.636719 230.542969 C 287.5 230.542969 281.347656 231.320312 275.308594 232.917969 L 146.679688 104.292969 C 158.074219 81.363281 156.792969 53.117188 141.101562 30.699219 C 127.039062 10.707031 104.757812 0 82.074219 0 C 79.976562 0 77.875 0.0898438 75.777344 0.273438 Z M 75.777344 0.273438 " fill-opacity="1" fill-rule="nonzero"/></svg>