<svg xmlns="http://www.w3.org/2000/svg" xmlns:xlink="http://www.w3.org/1999/xlink" width="1920" zoomAndPan="magnify" viewBox="0 0 1440 809.999993" height="1080" preserveAspectRatio="xMidYMid meet" version="1.0"><defs><clipPath id="390511e2f5"><path d="M 0 0 L 1440 0 L 1440 241.285156 L 0 241.285156 Z M 0 0 " clip-rule="nonzero"/></clipPath><clipPath id="d902377881"><path d="M 0 0 L 202.5 0 L 202.5 121.5 L 0 121.5 Z M 0 0 " clip-rule="nonzero"/></clipPath><clipPath id="8a15ce3dff"><path d="M 81 -121.5 C 13.898438 -121.5 -40.5 -67.101562 -40.5 0 C -40.5 67.101562 13.898438 121.5 81 121.5 C 148.101562 121.5 202.5 67.101562 202.5 0 C 202.5 -67.101562 148.101562 -121.5 81 -121.5 Z M 81 -121.5 " clip-rule="nonzero"/></clipPath></defs><rect x="-144" width="1728" fill="#ffffff" y="-80.999999" height="971.999992" fill-opacity="1"/><rect x="-144" width="1728" fill="#ffffff" y="-80.999999" height="971.999992" fill-opacity="1"/><g clip-path="url(#390511e2f5)"><path fill="#ff8800" d="M 1465.304688 68.238281 L 1378.777344 91.273438 C 1292.253906 114.742188 1119.203125 160.167969 946.15625 149.027344 C 773.105469 137.457031 600.058594 68.238281 427.007812 73.96875 C 253.957031 80.132812 80.910156 160.167969 -5.617188 200.945312 L -92.140625 241.285156 L -92.140625 -35.59375 L -5.617188 -35.59375 C 80.910156 -35.59375 253.957031 -35.59375 427.007812 -35.59375 C 600.058594 -35.59375 773.105469 -35.59375 946.15625 -35.59375 C 1119.203125 -35.59375 1292.253906 -35.59375 1378.777344 -35.59375 L 1465.304688 -35.59375 Z M 1465.304688 68.238281 " fill-opacity="1" fill-rule="nonzero"/></g><g clip-path="url(#d902377881)"><g clip-path="url(#8a15ce3dff)"><path fill="#ff8800" d="M -40.5 -121.5 L 202.5 -121.5 L 202.5 121.5 L -40.5 121.5 Z M -40.5 -121.5 " fill-opacity="1" fill-rule="nonzero"/></g></g></svg>