<svg xmlns="http://www.w3.org/2000/svg" xmlns:xlink="http://www.w3.org/1999/xlink" width="500" zoomAndPan="magnify" viewBox="0 0 375 374.999991" height="500" preserveAspectRatio="xMidYMid meet" version="1.0"><path fill="#ff8800" d="M 361.796875 174.273438 C 360.691406 174.273438 359.667969 174.398438 358.648438 174.644531 C 352.882812 176.074219 348.589844 181.265625 348.589844 187.480469 C 348.589844 276.273438 276.355469 348.550781 187.519531 348.550781 C 98.726562 348.550781 26.449219 276.3125 26.449219 187.480469 C 26.449219 98.644531 98.6875 26.410156 187.519531 26.410156 C 224.476562 26.410156 259.714844 38.878906 288.25 61.769531 L 268.300781 77.671875 L 341.925781 106.65625 L 330.234375 28.414062 L 309.34375 45.011719 C 303.007812 39.613281 296.34375 34.585938 289.355469 30.089844 C 279.542969 23.710938 269.078125 18.234375 258.246094 13.816406 C 247.207031 9.320312 235.71875 5.886719 224.027344 3.554688 C 212.128906 1.183594 199.785156 0 187.519531 0 C 174.804688 0 162.09375 1.265625 149.746094 3.800781 C 137.6875 6.253906 125.871094 9.933594 114.546875 14.71875 C 103.429688 19.417969 92.71875 25.222656 82.703125 32.007812 C 72.769531 38.714844 63.445312 46.398438 54.945312 54.902344 C 46.480469 63.367188 38.753906 72.726562 32.050781 82.660156 C 25.265625 92.675781 19.460938 103.386719 14.757812 114.507812 C 9.976562 125.832031 6.296875 137.6875 3.84375 149.707031 C 1.265625 162.09375 0 174.804688 0 187.519531 C 0 200.234375 1.265625 212.949219 3.800781 225.292969 C 6.253906 237.355469 9.933594 249.167969 14.71875 260.492188 C 19.417969 271.613281 25.222656 282.324219 32.007812 292.339844 C 38.714844 302.273438 46.398438 311.59375 54.902344 320.097656 C 63.367188 328.558594 72.726562 336.285156 82.660156 342.992188 C 92.675781 349.777344 103.386719 355.582031 114.507812 360.28125 C 125.832031 365.066406 137.6875 368.746094 149.707031 371.199219 C 162.050781 373.734375 174.765625 375 187.480469 375 C 200.195312 375 212.90625 373.734375 225.253906 371.199219 C 237.3125 368.746094 249.128906 365.066406 260.453125 360.28125 C 271.570312 355.582031 282.28125 349.777344 292.296875 342.992188 C 302.230469 336.285156 311.554688 328.601562 320.054688 320.097656 C 328.519531 311.632812 336.246094 302.273438 342.949219 292.339844 C 349.734375 282.324219 355.539062 271.613281 360.242188 260.492188 C 365.023438 249.167969 368.703125 237.3125 371.15625 225.292969 C 373.691406 212.949219 374.960938 200.234375 374.960938 187.519531 C 375 180.203125 369.074219 174.273438 361.796875 174.273438 Z M 361.796875 174.273438 " fill-opacity="1" fill-rule="nonzero"/><path fill="#ff8800" d="M 88.957031 132.820312 L 57.96875 224.109375 L 77.386719 224.109375 L 84.5 203.015625 L 117.859375 203.015625 L 125.382812 224.109375 L 146.148438 224.109375 L 113.8125 132.820312 Z M 88.628906 186.824219 C 93.820312 170.351562 98.398438 156.042969 100.648438 147.046875 L 100.769531 147.046875 C 102.980469 155.265625 107.109375 167.570312 113.609375 186.824219 Z M 88.628906 186.824219 " fill-opacity="1" fill-rule="nonzero"/><path fill="#ff8800" d="M 196.472656 146.964844 C 209.839844 146.964844 214.664062 154.203125 216.546875 160.292969 L 236.292969 160.292969 C 234.082031 144.71875 220.265625 131.472656 196.757812 131.472656 C 167.980469 131.472656 152.035156 152.160156 152.035156 179.589844 C 152.035156 205.589844 166.835938 225.621094 193.324219 225.621094 C 206 225.621094 214.910156 221.902344 219.980469 215.074219 C 220.226562 218.140625 220.714844 221.289062 221.492188 224.066406 L 235.964844 224.066406 L 235.964844 173.046875 L 196.597656 173.046875 L 196.597656 189.238281 L 216.628906 189.238281 L 216.628906 190.054688 C 216.628906 198.230469 213.519531 209.921875 196.636719 209.921875 C 178.527344 209.921875 172.433594 194.46875 172.433594 178.730469 C 172.394531 162.664062 177.710938 146.964844 196.472656 146.964844 Z M 196.472656 146.964844 " fill-opacity="1" fill-rule="nonzero"/><path fill="#ff8800" d="M 275.25 207.921875 L 275.25 184.742188 L 318.910156 184.742188 L 318.910156 168.550781 L 275.25 168.550781 L 275.25 149.011719 L 320.832031 149.011719 L 320.832031 132.820312 L 256.078125 132.820312 L 256.078125 224.109375 L 321.039062 224.109375 L 323.410156 207.921875 Z M 275.25 207.921875 " fill-opacity="1" fill-rule="nonzero"/></svg>