<svg xmlns="http://www.w3.org/2000/svg" xmlns:xlink="http://www.w3.org/1999/xlink" width="500" zoomAndPan="magnify" viewBox="0 0 375 374.999991" height="500" preserveAspectRatio="xMidYMid meet" version="1.0"><defs><clipPath id="4001238c96"><path d="M 41.25 6.695312 L 333.75 6.695312 L 333.75 369 L 41.25 369 Z M 41.25 6.695312 " clip-rule="nonzero"/></clipPath></defs><g clip-path="url(#4001238c96)"><path fill="#ff8800" d="M 228.132812 274.589844 C 263.636719 218.695312 302.4375 156.648438 302.4375 122.84375 C 302.4375 58.78125 250.328125 6.664062 186.273438 6.664062 C 122.210938 6.664062 70.09375 58.78125 70.09375 122.84375 C 70.09375 154.695312 110.433594 220.125 144.765625 274.78125 C 94.480469 279.527344 41.421875 293.863281 41.421875 320.929688 C 41.421875 335.667969 57.371094 348.101562 87.546875 356.890625 C 172.652344 381.671875 333.578125 367.730469 333.578125 320.929688 C 333.578125 293.421875 279.417969 279.140625 228.132812 274.589844 Z M 186.273438 312.050781 C 155.847656 260.96875 85.714844 159.113281 85.714844 122.84375 C 85.714844 67.398438 130.824219 22.285156 186.273438 22.285156 C 241.710938 22.285156 286.816406 67.394531 286.816406 122.84375 C 286.816406 161.492188 217.03125 260.523438 186.273438 312.050781 Z M 186.273438 312.050781 " fill-opacity="1" fill-rule="nonzero"/></g><path fill="#ff8800" d="M 186.273438 62.511719 C 155.265625 62.511719 130.035156 87.746094 130.035156 118.757812 C 130.035156 149.761719 155.265625 174.980469 186.273438 174.980469 C 217.273438 174.980469 242.496094 149.761719 242.496094 118.757812 C 242.496094 87.746094 217.273438 62.511719 186.273438 62.511719 Z M 186.273438 159.359375 C 163.878906 159.359375 145.65625 141.148438 145.65625 118.757812 C 145.65625 96.359375 163.878906 78.132812 186.273438 78.132812 C 208.660156 78.132812 226.875 96.359375 226.875 118.757812 C 226.875 141.144531 208.660156 159.359375 186.273438 159.359375 Z M 186.273438 159.359375 " fill-opacity="1" fill-rule="nonzero"/></svg>