<svg xmlns="http://www.w3.org/2000/svg" xmlns:xlink="http://www.w3.org/1999/xlink" width="374" zoomAndPan="magnify" viewBox="0 0 280.5 149.999998" height="200" preserveAspectRatio="xMidYMid meet" version="1.0"><defs><g/><clipPath id="9ddbb11a18"><path d="M 32.253906 22.207031 L 62.144531 22.207031 L 62.144531 39.117188 L 32.253906 39.117188 Z M 32.253906 22.207031 " clip-rule="nonzero"/></clipPath><clipPath id="571ac0a1ad"><path d="M 14.3125 61.253906 L 58.433594 61.253906 L 58.433594 79.460938 L 14.3125 79.460938 Z M 14.3125 61.253906 " clip-rule="nonzero"/></clipPath><clipPath id="70810feb5c"><path d="M 0 102.769531 L 44.121094 102.769531 L 44.121094 122.160156 L 0 122.160156 Z M 0 102.769531 " clip-rule="nonzero"/></clipPath><clipPath id="5e87c77887"><path d="M 261.816406 23.984375 L 279.566406 23.984375 L 279.566406 41.734375 L 261.816406 41.734375 Z M 261.816406 23.984375 " clip-rule="nonzero"/></clipPath></defs><g fill="#000000" fill-opacity="1"><g transform="translate(32.643437, 122.185914)"><g><path d="M 37.5625 -43.234375 L 30.453125 -43.234375 L 25.859375 -17.3125 L 33.46875 -17.3125 C 35.195312 -17.3125 36.707031 -17.726562 38 -18.5625 C 39.289062 -19.40625 40.34375 -20.445312 41.15625 -21.6875 C 41.96875 -22.9375 42.492188 -24.207031 42.734375 -25.5 L 44.25 -34.265625 C 44.769531 -37.328125 44.320312 -39.585938 42.90625 -41.046875 C 41.5 -42.503906 39.71875 -43.234375 37.5625 -43.234375 Z M 49.28125 -66.375 L 50.5 -73.40625 C 51.019531 -76.375 50.625 -78.539062 49.3125 -79.90625 C 48 -81.269531 46.191406 -81.953125 43.890625 -81.953125 L 37.28125 -81.953125 L 33.1875 -58.6875 L 39.578125 -58.6875 C 40.628906 -58.6875 41.847656 -58.898438 43.234375 -59.328125 C 44.628906 -59.765625 45.898438 -60.53125 47.046875 -61.625 C 48.191406 -62.726562 48.9375 -64.3125 49.28125 -66.375 Z M 25.140625 -99.40625 L 47.90625 -99.40625 C 52.9375 -99.40625 57.160156 -98.316406 60.578125 -96.140625 C 64.003906 -93.960938 66.445312 -91.003906 67.90625 -87.265625 C 69.375 -83.535156 69.675781 -79.273438 68.8125 -74.484375 L 67.59375 -67.375 C 67.113281 -64.695312 66.117188 -62.234375 64.609375 -59.984375 C 63.097656 -57.734375 61.394531 -55.863281 59.5 -54.375 C 57.613281 -52.894531 55.859375 -51.984375 54.234375 -51.640625 C 55.191406 -51.359375 56.289062 -50.785156 57.53125 -49.921875 C 58.78125 -49.054688 59.921875 -47.859375 60.953125 -46.328125 C 61.984375 -44.796875 62.734375 -42.890625 63.203125 -40.609375 C 63.679688 -38.335938 63.632812 -35.648438 63.0625 -32.546875 L 61.484375 -23.625 C 60.859375 -20.132812 59.625 -16.941406 57.78125 -14.046875 C 55.9375 -11.148438 53.660156 -8.660156 50.953125 -6.578125 C 48.253906 -4.492188 45.335938 -2.875 42.203125 -1.71875 C 39.066406 -0.570312 35.894531 0 32.6875 0 L 7.609375 0 C 5.984375 0 5.316406 -0.910156 5.609375 -2.734375 L 22.125 -96.609375 C 22.507812 -98.472656 23.515625 -99.40625 25.140625 -99.40625 Z M 25.140625 -99.40625 "/></g></g></g><g clip-path="url(#9ddbb11a18)"><path fill="#000000" d="M 32.253906 22.207031 L 62.171875 22.207031 L 62.171875 39.117188 L 32.253906 39.117188 Z M 32.253906 22.207031 " fill-opacity="1" fill-rule="nonzero"/></g><g clip-path="url(#571ac0a1ad)"><path fill="#000000" d="M 14.3125 61.253906 L 58.40625 61.253906 L 58.40625 79.460938 L 14.3125 79.460938 Z M 14.3125 61.253906 " fill-opacity="1" fill-rule="nonzero"/></g><g clip-path="url(#70810feb5c)"><path fill="#000000" d="M 0 102.769531 L 44.15625 102.769531 L 44.15625 122.160156 L 0 122.160156 Z M 0 102.769531 " fill-opacity="1" fill-rule="nonzero"/></g><g fill="#000000" fill-opacity="1"><g transform="translate(118.457963, 122.185914)"><g><path d="M 58.546875 -71.546875 L 56.8125 -61.78125 C 56.769531 -61.539062 56.710938 -61.238281 56.640625 -60.875 C 56.566406 -60.519531 56.382812 -60.101562 56.09375 -59.625 L 26.65625 -18.09375 L 24.5625 -15.796875 L 47.84375 -15.796875 C 48.320312 -15.796875 48.75 -15.59375 49.125 -15.1875 C 49.507812 -14.78125 49.65625 -14.335938 49.5625 -13.859375 L 47.546875 -2.078125 C 47.410156 -1.460938 47.101562 -0.945312 46.625 -0.53125 C 46.144531 -0.125 45.613281 0.078125 45.03125 0.078125 L 3.234375 0.078125 C 2.753906 0.078125 2.429688 -0.113281 2.265625 -0.5 C 2.097656 -0.882812 2.0625 -1.363281 2.15625 -1.9375 L 3.453125 -10.34375 C 3.546875 -10.726562 3.90625 -11.445312 4.53125 -12.5 L 33.96875 -55.53125 L 35.84375 -57.53125 L 14.359375 -57.53125 C 13.929688 -57.53125 13.609375 -57.734375 13.390625 -58.140625 C 13.179688 -58.546875 13.125 -59.015625 13.21875 -59.546875 L 15.296875 -71.46875 C 15.390625 -72.09375 15.59375 -72.597656 15.90625 -72.984375 C 16.21875 -73.367188 16.660156 -73.5625 17.234375 -73.5625 L 57.390625 -73.5625 C 58.398438 -73.5625 58.785156 -72.890625 58.546875 -71.546875 Z M 58.546875 -71.546875 "/></g></g></g><g fill="#000000" fill-opacity="1"><g transform="translate(159.145511, 122.185914)"><g><path d="M 58.546875 -71.546875 L 56.8125 -61.78125 C 56.769531 -61.539062 56.710938 -61.238281 56.640625 -60.875 C 56.566406 -60.519531 56.382812 -60.101562 56.09375 -59.625 L 26.65625 -18.09375 L 24.5625 -15.796875 L 47.84375 -15.796875 C 48.320312 -15.796875 48.75 -15.59375 49.125 -15.1875 C 49.507812 -14.78125 49.65625 -14.335938 49.5625 -13.859375 L 47.546875 -2.078125 C 47.410156 -1.460938 47.101562 -0.945312 46.625 -0.53125 C 46.144531 -0.125 45.613281 0.078125 45.03125 0.078125 L 3.234375 0.078125 C 2.753906 0.078125 2.429688 -0.113281 2.265625 -0.5 C 2.097656 -0.882812 2.0625 -1.363281 2.15625 -1.9375 L 3.453125 -10.34375 C 3.546875 -10.726562 3.90625 -11.445312 4.53125 -12.5 L 33.96875 -55.53125 L 35.84375 -57.53125 L 14.359375 -57.53125 C 13.929688 -57.53125 13.609375 -57.734375 13.390625 -58.140625 C 13.179688 -58.546875 13.125 -59.015625 13.21875 -59.546875 L 15.296875 -71.46875 C 15.390625 -72.09375 15.59375 -72.597656 15.90625 -72.984375 C 16.21875 -73.367188 16.660156 -73.5625 17.234375 -73.5625 L 57.390625 -73.5625 C 58.398438 -73.5625 58.785156 -72.890625 58.546875 -71.546875 Z M 58.546875 -71.546875 "/></g></g></g><g fill="#000000" fill-opacity="1"><g transform="translate(91.648999, 121.277748)"><g><path d="M 19.828125 0 L 6.6875 0 C 5.050781 0 4.378906 -0.789062 4.671875 -2.375 L 16.8125 -71.328125 C 16.90625 -71.992188 17.238281 -72.53125 17.8125 -72.9375 C 18.382812 -73.351562 18.984375 -73.5625 19.609375 -73.5625 L 32.75 -73.5625 C 33.46875 -73.5625 34.054688 -73.34375 34.515625 -72.90625 C 34.972656 -72.476562 35.148438 -71.953125 35.046875 -71.328125 L 22.90625 -2.375 C 22.8125 -1.601562 22.476562 -1.015625 21.90625 -0.609375 C 21.332031 -0.203125 20.640625 0 19.828125 0 Z M 39.21875 -92.453125 L 37.421875 -82.53125 C 37.234375 -81.1875 36.753906 -80.265625 35.984375 -79.765625 C 35.222656 -79.265625 34.265625 -79.015625 33.109375 -79.015625 L 21.484375 -79.015625 C 20.285156 -79.015625 19.347656 -79.253906 18.671875 -79.734375 C 18.003906 -80.210938 17.789062 -81.125 18.03125 -82.46875 L 19.75 -92.515625 C 19.988281 -93.617188 20.457031 -94.53125 21.15625 -95.25 C 21.851562 -95.96875 22.96875 -96.328125 24.5 -96.328125 L 36.125 -96.328125 C 38.664062 -96.328125 39.695312 -95.035156 39.21875 -92.453125 Z M 39.21875 -92.453125 "/></g></g></g><g fill="#000000" fill-opacity="1"><g transform="translate(204.620854, 122.185914)"><g><path d="M 34.40625 -71.109375 L 26.359375 -25.5 C 26.210938 -23.914062 26.609375 -22.550781 27.546875 -21.40625 C 28.484375 -20.257812 29.910156 -19.6875 31.828125 -19.6875 C 33.117188 -19.6875 34.300781 -20.054688 35.375 -20.796875 C 36.457031 -21.535156 37.367188 -22.476562 38.109375 -23.625 C 38.847656 -24.78125 39.3125 -25.929688 39.5 -27.078125 L 47.1875 -70.390625 C 47.382812 -71.546875 47.875 -72.363281 48.65625 -72.84375 C 49.445312 -73.320312 50.035156 -73.5625 50.421875 -73.5625 L 63.71875 -73.5625 C 64.289062 -73.5625 64.753906 -73.351562 65.109375 -72.9375 C 65.472656 -72.53125 65.609375 -71.921875 65.515625 -71.109375 L 55.8125 -16.671875 L 55.890625 -16.671875 L 53.375 -2.4375 C 52.507812 2.488281 50.769531 6.804688 48.15625 10.515625 C 45.550781 14.234375 42.148438 17.117188 37.953125 19.171875 C 33.765625 21.234375 28.847656 22.265625 23.203125 22.265625 C 18.796875 22.265625 14.914062 21.6875 11.5625 20.53125 C 8.207031 19.382812 5.523438 17.976562 3.515625 16.3125 C 2.941406 15.875 2.617188 15.304688 2.546875 14.609375 C 2.472656 13.921875 2.65625 13.265625 3.09375 12.640625 L 8.625 3.953125 C 9.195312 3.234375 9.769531 2.875 10.34375 2.875 C 10.820312 2.875 11.347656 3.113281 11.921875 3.59375 C 13.210938 4.644531 14.910156 5.550781 17.015625 6.3125 C 19.128906 7.082031 21.164062 7.46875 23.125 7.46875 C 24.894531 7.46875 26.617188 7.15625 28.296875 6.53125 C 29.972656 5.914062 31.429688 4.851562 32.671875 3.34375 C 33.921875 1.832031 34.765625 -0.238281 35.203125 -2.875 L 35.84375 -6.828125 C 33.976562 -5.867188 32.097656 -5.113281 30.203125 -4.5625 C 28.316406 -4.007812 26.460938 -3.734375 24.640625 -3.734375 C 20.753906 -3.734375 17.4375 -4.640625 14.6875 -6.453125 C 11.9375 -8.273438 9.984375 -10.847656 8.828125 -14.171875 C 7.679688 -17.503906 7.492188 -21.425781 8.265625 -25.9375 L 8.90625 -29.8125 L 8.90625 -29.875 L 16.234375 -71.109375 C 16.378906 -71.921875 16.691406 -72.53125 17.171875 -72.9375 C 17.648438 -73.351562 18.195312 -73.5625 18.8125 -73.5625 L 32.75 -73.5625 C 33.375 -73.5625 33.84375 -73.351562 34.15625 -72.9375 C 34.46875 -72.53125 34.550781 -71.921875 34.40625 -71.109375 Z M 34.40625 -71.109375 "/></g></g></g><g clip-path="url(#5e87c77887)"><path fill="#000000" d="M 269.402344 32.453125 L 270.347656 32.453125 C 271.457031 32.453125 272.351562 32.078125 272.351562 31.160156 C 272.351562 30.351562 271.773438 29.808594 270.507812 29.808594 C 269.980469 29.808594 269.613281 29.863281 269.402344 29.917969 Z M 269.347656 37.417969 L 267.347656 37.417969 L 267.347656 28.570312 C 268.136719 28.460938 269.242188 28.300781 270.664062 28.300781 C 272.296875 28.300781 273.035156 28.570312 273.617188 29 C 274.140625 29.378906 274.511719 30.027344 274.511719 30.890625 C 274.511719 31.96875 273.71875 32.667969 272.71875 32.992188 L 272.71875 33.101562 C 273.5625 33.371094 273.984375 34.074219 274.246094 35.257812 C 274.511719 36.609375 274.722656 37.09375 274.878906 37.417969 L 272.773438 37.417969 C 272.507812 37.09375 272.351562 36.339844 272.085938 35.257812 C 271.929688 34.34375 271.402344 33.910156 270.296875 33.910156 L 269.347656 33.910156 Z M 264.027344 32.832031 C 264.027344 36.769531 266.925781 39.898438 270.769531 39.898438 C 274.511719 39.953125 277.355469 36.769531 277.355469 32.886719 C 277.355469 28.949219 274.511719 25.765625 270.664062 25.765625 C 266.925781 25.765625 264.027344 28.949219 264.027344 32.832031 Z M 279.566406 32.832031 C 279.566406 37.796875 275.667969 41.734375 270.71875 41.734375 C 265.765625 41.734375 261.816406 37.796875 261.816406 32.832031 C 261.816406 27.867188 265.765625 23.984375 270.769531 23.984375 C 275.667969 23.984375 279.566406 27.867188 279.566406 32.832031 " fill-opacity="1" fill-rule="nonzero"/></g></svg>