<svg xmlns="http://www.w3.org/2000/svg" xmlns:xlink="http://www.w3.org/1999/xlink" width="500" zoomAndPan="magnify" viewBox="0 0 375 374.999991" height="500" preserveAspectRatio="xMidYMid meet" version="1.0"><path fill="#ff8800" d="M 187.5 375 C 137.417969 375 90.332031 355.496094 54.917969 320.082031 C 19.503906 284.667969 0 237.582031 0 187.5 C 0 137.417969 19.503906 90.332031 54.917969 54.917969 C 90.332031 19.503906 137.417969 0 187.5 0 C 237.582031 0 284.667969 19.503906 320.082031 54.917969 C 355.496094 90.332031 375 137.417969 375 187.5 C 375 237.582031 355.496094 284.667969 320.082031 320.082031 C 284.671875 355.5 237.582031 375 187.5 375 Z M 187.5 28.617188 C 99.890625 28.617188 28.617188 99.894531 28.617188 187.5 C 28.617188 275.109375 99.894531 346.382812 187.5 346.382812 C 275.109375 346.382812 346.382812 275.105469 346.382812 187.5 C 346.382812 99.890625 275.109375 28.617188 187.5 28.617188 Z M 187.5 28.617188 " fill-opacity="1" fill-rule="nonzero"/><path fill="#ff8800" d="M 249.734375 259.898438 C 246.949219 259.898438 244.132812 259.082031 241.65625 257.390625 L 171.953125 209.589844 C 168.054688 206.917969 165.734375 202.496094 165.738281 197.765625 L 165.917969 80.800781 C 165.929688 72.90625 172.335938 66.515625 180.222656 66.515625 C 180.230469 66.515625 180.242188 66.515625 180.246094 66.515625 C 188.144531 66.527344 194.539062 72.945312 194.53125 80.84375 L 194.359375 190.261719 L 257.835938 233.789062 C 264.351562 238.261719 266.015625 247.167969 261.542969 253.683594 C 258.773438 257.722656 254.289062 259.898438 249.734375 259.898438 Z M 249.734375 259.898438 " fill-opacity="1" fill-rule="nonzero"/></svg>