<svg xmlns="http://www.w3.org/2000/svg" xmlns:xlink="http://www.w3.org/1999/xlink" width="500" zoomAndPan="magnify" viewBox="0 0 375 374.999991" height="500" preserveAspectRatio="xMidYMid meet" version="1.0"><defs><clipPath id="dae8c3b1bd"><path d="M 7 0.46875 L 374.769531 0.46875 L 374.769531 368 L 7 368 Z M 7 0.46875 " clip-rule="nonzero"/></clipPath></defs><g clip-path="url(#dae8c3b1bd)"><path fill="#ff8800" d="M 245.667969 0.46875 L 246.140625 40.429688 L 306.460938 40.429688 L 239.421875 107.464844 C 182.671875 64.484375 101.488281 68.863281 49.734375 120.617188 C -6.820312 177.171875 -6.820312 268.859375 49.734375 325.410156 C 106.285156 381.960938 197.972656 381.960938 254.523438 325.410156 C 306.28125 273.652344 310.660156 192.46875 267.675781 135.722656 L 334.859375 68.539062 L 334.859375 129.148438 L 374.816406 129.769531 L 374.816406 0.46875 L 245.664062 0.46875 Z M 226.597656 297.488281 C 185.46875 338.613281 118.789062 338.613281 77.660156 297.488281 C 36.53125 256.359375 36.53125 189.675781 77.660156 148.550781 C 118.789062 107.421875 185.46875 107.421875 226.597656 148.550781 C 267.726562 189.675781 267.726562 256.359375 226.597656 297.488281 Z M 226.597656 297.488281 " fill-opacity="1" fill-rule="nonzero"/></g></svg>