<svg xmlns="http://www.w3.org/2000/svg" xmlns:xlink="http://www.w3.org/1999/xlink" width="500" zoomAndPan="magnify" viewBox="0 0 375 374.999991" height="500" preserveAspectRatio="xMidYMid meet" version="1.0"><defs><clipPath id="1039495764"><path d="M 72.890625 72.890625 L 302.390625 72.890625 L 302.390625 302.390625 L 72.890625 302.390625 Z M 72.890625 72.890625 " clip-rule="nonzero"/></clipPath><clipPath id="c8569c7f6b"><path d="M 102 206 L 274 206 L 274 302.390625 L 102 302.390625 Z M 102 206 " clip-rule="nonzero"/></clipPath></defs><g clip-path="url(#1039495764)"><path fill="#b3b3b3" d="M 302.402344 187.644531 C 302.402344 217.003906 291.382812 243.777344 273.242188 264.070312 C 252.234375 287.597656 221.671875 302.398438 187.648438 302.398438 C 153.621094 302.398438 123.050781 287.597656 102.050781 264.070312 C 83.910156 243.777344 72.894531 217.003906 72.894531 187.644531 C 72.894531 124.273438 124.265625 72.890625 187.648438 72.890625 C 251.019531 72.890625 302.402344 124.273438 302.402344 187.644531 " fill-opacity="1" fill-rule="nonzero"/></g><path fill="#f2f2f2" d="M 187.648438 208.785156 C 208.445312 208.785156 227.390625 185.253906 227.390625 159.414062 C 227.390625 135.003906 222.667969 110.863281 187.648438 110.863281 C 152.625 110.863281 147.898438 135.003906 147.898438 159.414062 C 147.898438 185.253906 166.847656 208.785156 187.648438 208.785156 " fill-opacity="1" fill-rule="nonzero"/><g clip-path="url(#c8569c7f6b)"><path fill="#f2f2f2" d="M 273.242188 264.070312 C 252.234375 287.597656 221.671875 302.398438 187.648438 302.398438 C 153.621094 302.398438 123.050781 287.597656 102.050781 264.070312 C 101.6875 249.898438 111.125 217.0625 159.265625 206.953125 C 167.5 215.359375 177.636719 220.109375 187.648438 220.109375 C 197.660156 220.109375 207.785156 215.359375 216.019531 206.953125 C 264.167969 217.0625 273.597656 249.898438 273.242188 264.070312 " fill-opacity="1" fill-rule="nonzero"/></g></svg>